<svg width="71" height="71" viewBox="0 0 71 71" fill="none" xmlns="http://www.w3.org/2000/svg">
<path d="M25.1907 23.5936L44.5748 22.0502C44.8685 22.0268 45.1363 22.0607 45.378 22.1518C45.6188 22.2439 45.8449 22.3801 46.0563 22.5603C46.2677 22.7405 46.4379 22.9422 46.567 23.1654C46.6952 23.3897 46.771 23.6487 46.7944 23.9424L48.3378 43.3265C48.3807 43.8649 48.2233 44.3577 47.8659 44.8049C47.5064 45.2523 47.033 45.4993 46.4456 45.5461C45.8846 45.6154 45.3805 45.4713 44.9334 45.1138C44.486 44.7543 44.239 44.2809 44.1922 43.6935L43.0464 29.3023L27.9426 47.0193C27.5596 47.4685 27.0868 47.716 26.5239 47.7618C25.9609 47.8056 25.4548 47.6361 25.0056 47.2531C24.5564 46.8702 24.3094 46.3977 24.2647 45.8358C24.2198 45.2719 24.3888 44.7653 24.7718 44.3161L39.8756 26.5991L25.4843 27.745C24.9459 27.7879 24.4462 27.6247 23.9853 27.2555C23.5253 26.8852 23.2851 26.4177 23.2648 25.8528C23.1955 25.2918 23.3523 24.7867 23.7352 24.3375C24.1182 23.8883 24.6034 23.6403 25.1907 23.5936Z" fill="url(#paint0_linear_902_2475)"/>
<defs>
<linearGradient id="paint0_linear_902_2475" x1="25" y1="46.4999" x2="46.5" y2="20.9999" gradientUnits="userSpaceOnUse">
<stop stop-color="#3A77FC"/>
<stop offset="0.53125" stop-color="#BA56C7"/>
<stop offset="1" stop-color="#FEA61D"/>
</linearGradient>
</defs>
</svg>
