<svg width="1440" height="190" viewBox="0 0 1440 190" fill="none" xmlns="http://www.w3.org/2000/svg">
<path d="M-0.499897 41.9999L1440 47.5L1440 155L0.500089 161L-0.499897 41.9999Z" fill="url(#paint0_linear_957_587)"/>
<path d="M-5.97993e-05 75.9999L1440.5 -8.06747e-05L1440.5 106L-1.26239e-07 190L-5.97993e-05 75.9999Z" fill="white"/>
<path d="M541.18 104.528L533.345 102.275C533.311 102.267 533.279 102.25 533.252 102.227C533.225 102.204 533.205 102.175 533.192 102.142L529.921 94.8052C529.779 94.4966 529.545 94.2376 529.25 94.063C528.954 93.8883 528.611 93.8062 528.267 93.8277C527.923 93.8492 527.593 93.9732 527.323 94.1832C527.052 94.3932 526.853 94.6791 526.753 95.0029L524.455 102.687C524.447 102.721 524.43 102.753 524.407 102.779C524.383 102.805 524.354 102.825 524.32 102.838L516.84 106.046C516.526 106.185 516.262 106.415 516.084 106.705C515.905 106.995 515.822 107.331 515.844 107.669C515.866 108.007 515.992 108.33 516.206 108.595C516.42 108.861 516.712 109.056 517.042 109.154L524.876 111.408C524.911 111.416 524.943 111.432 524.969 111.455C524.996 111.478 525.017 111.507 525.029 111.54L528.3 118.877C528.442 119.186 528.676 119.445 528.972 119.619C529.267 119.794 529.61 119.876 529.954 119.855C530.299 119.833 530.628 119.709 530.899 119.499C531.169 119.289 531.368 119.003 531.469 118.679L533.766 110.995C533.774 110.961 533.791 110.93 533.814 110.903C533.838 110.877 533.868 110.857 533.901 110.845L541.381 107.636C541.696 107.497 541.96 107.267 542.138 106.978C542.316 106.688 542.4 106.351 542.378 106.014C542.356 105.676 542.229 105.353 542.015 105.087C541.801 104.822 541.51 104.627 541.18 104.528ZM540.803 106.336L533.323 109.545C533.096 109.642 532.895 109.786 532.731 109.968C532.568 110.15 532.448 110.365 532.379 110.597L530.081 118.281C530.069 118.33 530.041 118.372 530.002 118.404C529.963 118.436 529.914 118.454 529.864 118.458C529.813 118.461 529.763 118.448 529.72 118.422C529.677 118.395 529.644 118.356 529.625 118.31L526.354 110.973C526.255 110.751 526.108 110.553 525.923 110.393C525.738 110.233 525.519 110.115 525.282 110.047L517.448 107.793C517.399 107.781 517.355 107.753 517.323 107.715C517.29 107.677 517.271 107.63 517.268 107.58C517.265 107.53 517.278 107.481 517.305 107.439C517.332 107.397 517.372 107.364 517.419 107.346L524.899 104.137C525.125 104.04 525.327 103.896 525.49 103.714C525.653 103.533 525.773 103.318 525.843 103.085L528.14 95.401C528.153 95.3529 528.181 95.3099 528.22 95.2783C528.259 95.2467 528.307 95.228 528.358 95.2248C528.408 95.2217 528.458 95.2342 528.501 95.2608C528.544 95.2873 528.577 95.3264 528.596 95.3725L531.867 102.71C531.966 102.932 532.113 103.13 532.298 103.29C532.484 103.45 532.703 103.568 532.94 103.636L540.774 105.889C540.823 105.902 540.867 105.929 540.899 105.967C540.931 106.006 540.95 106.053 540.953 106.102C540.957 106.152 540.944 106.201 540.917 106.243C540.89 106.285 540.85 106.318 540.803 106.336Z" fill="#E34E61"/>
<path d="M33.1796 135.528L25.3455 133.274C25.3108 133.266 25.2787 133.25 25.252 133.227C25.2253 133.204 25.2048 133.175 25.1923 133.142L21.921 125.805C21.7794 125.496 21.5452 125.237 21.2497 125.063C20.9542 124.888 20.6113 124.806 20.267 124.827C19.9226 124.849 19.5932 124.973 19.3226 125.183C19.052 125.393 18.8531 125.679 18.7525 126.003L16.4551 133.687C16.447 133.721 16.4304 133.753 16.4069 133.779C16.3833 133.805 16.3536 133.825 16.3202 133.837L8.84027 137.046C8.52561 137.185 8.26161 137.415 8.08354 137.705C7.90546 137.994 7.82179 138.331 7.84369 138.669C7.86559 139.006 7.99201 139.329 8.20609 139.595C8.42016 139.86 8.7117 140.055 9.04176 140.154L16.8759 142.408C16.9105 142.416 16.9426 142.432 16.9693 142.455C16.9961 142.478 17.0166 142.507 17.029 142.54L20.3004 149.877C20.4419 150.186 20.6761 150.445 20.9716 150.619C21.2672 150.794 21.61 150.876 21.9544 150.854C22.2987 150.833 22.6282 150.709 22.8988 150.499C23.1694 150.289 23.3682 150.003 23.4688 149.679L25.7662 141.995C25.7744 141.961 25.791 141.929 25.8145 141.903C25.838 141.877 25.8678 141.857 25.9011 141.845L33.3811 138.636C33.6957 138.497 33.9597 138.267 34.1378 137.977C34.3159 137.687 34.3995 137.351 34.3776 137.013C34.3557 136.676 34.2293 136.352 34.0152 136.087C33.8012 135.822 33.5096 135.627 33.1796 135.528ZM32.8028 137.336L25.3228 140.545C25.0964 140.642 24.8945 140.786 24.7314 140.968C24.5683 141.15 24.4479 141.364 24.3788 141.597L22.0813 149.281C22.0686 149.329 22.0407 149.372 22.0016 149.404C21.9626 149.435 21.9143 149.454 21.8638 149.457C21.8132 149.46 21.763 149.448 21.7201 149.421C21.6773 149.395 21.6441 149.356 21.6253 149.31L18.3539 141.973C18.2554 141.751 18.1082 141.553 17.9229 141.393C17.7376 141.232 17.5187 141.114 17.2817 141.047L9.44759 138.793C9.39856 138.781 9.3548 138.753 9.32256 138.715C9.29031 138.677 9.27122 138.629 9.268 138.58C9.26479 138.53 9.27762 138.481 9.30466 138.439C9.33169 138.397 9.37157 138.364 9.41859 138.346L16.8986 135.137C17.1249 135.04 17.3268 134.896 17.4899 134.714C17.6531 134.532 17.7735 134.318 17.8426 134.085L20.14 126.401C20.1528 126.353 20.1806 126.31 20.2197 126.278C20.2588 126.246 20.307 126.228 20.3576 126.225C20.4081 126.221 20.4584 126.234 20.5012 126.261C20.544 126.287 20.5772 126.326 20.5961 126.372L23.8674 133.709C23.966 133.931 24.1131 134.129 24.2984 134.289C24.4837 134.449 24.7026 134.568 24.9396 134.635L32.7737 136.889C32.8228 136.901 32.8665 136.929 32.8988 136.967C32.931 137.005 32.9501 137.053 32.9533 137.102C32.9565 137.152 32.9437 137.201 32.9167 137.243C32.8896 137.285 32.8498 137.318 32.8028 137.336Z" fill="#A23FFC"/>
<path d="M861.5 85.9613L853.697 83.6326C853.662 83.6243 853.63 83.6077 853.604 83.5844C853.577 83.5611 853.557 83.5317 853.545 83.4989L850.343 76.1387C850.205 75.8291 849.973 75.5681 849.679 75.3907C849.386 75.2133 849.044 75.1279 848.7 75.146C848.356 75.164 848.026 75.2846 847.754 75.4916C847.482 75.6986 847.281 75.9822 847.177 76.3046L844.814 83.9562C844.806 83.9901 844.789 84.0214 844.765 84.0473C844.742 84.0733 844.712 84.0931 844.678 84.1049L837.18 87.2351C836.864 87.3707 836.599 87.5974 836.418 87.8852C836.238 88.1729 836.151 88.508 836.17 88.8455C836.189 89.1831 836.312 89.5071 836.524 89.7743C836.735 90.0415 837.025 90.2392 837.353 90.341L845.157 92.6697C845.191 92.678 845.223 92.6946 845.25 92.7179C845.276 92.7412 845.297 92.7706 845.309 92.8033L848.51 100.164C848.649 100.473 848.881 100.734 849.174 100.912C849.468 101.089 849.809 101.174 850.153 101.156C850.498 101.138 850.828 101.018 851.1 100.811C851.372 100.604 851.573 100.32 851.676 99.9977L854.039 92.3461C854.048 92.3122 854.064 92.2809 854.088 92.255C854.112 92.229 854.142 92.2092 854.175 92.1973L861.674 89.0672C861.989 88.9316 862.255 88.7048 862.435 88.4171C862.616 88.1293 862.702 87.7943 862.684 87.4568C862.665 87.1192 862.541 86.7952 862.33 86.528C862.118 86.2608 861.829 86.0631 861.5 85.9613ZM861.108 87.7635L853.609 90.8937C853.382 90.988 853.179 91.1301 853.015 91.31C852.85 91.4899 852.728 91.7032 852.657 91.9347L850.294 99.5863C850.281 99.6343 850.253 99.6768 850.214 99.708C850.174 99.7392 850.126 99.7575 850.075 99.7601C850.025 99.7628 849.975 99.7497 849.932 99.7228C849.89 99.6959 849.857 99.6565 849.839 99.6102L846.637 92.25C846.54 92.0273 846.395 91.828 846.212 91.6664C846.028 91.5047 845.81 91.3846 845.574 91.3145L837.771 88.9858C837.722 88.9729 837.678 88.9451 837.647 88.9066C837.615 88.868 837.596 88.8205 837.593 88.771C837.59 88.7214 837.604 88.6723 837.631 88.6306C837.658 88.5889 837.699 88.5568 837.746 88.5388L845.244 85.4086C845.471 85.3143 845.674 85.1721 845.839 84.9922C846.003 84.8123 846.125 84.5991 846.196 84.3676L848.559 76.7159C848.572 76.668 848.601 76.6254 848.64 76.5942C848.679 76.563 848.728 76.5448 848.778 76.5422C848.829 76.5395 848.879 76.5526 848.921 76.5795C848.964 76.6064 848.997 76.6458 849.015 76.6921L852.217 84.0523C852.313 84.275 852.458 84.4742 852.642 84.6359C852.826 84.7976 853.043 84.9177 853.279 84.9878L861.083 87.3164C861.132 87.3294 861.175 87.3571 861.207 87.3957C861.239 87.4343 861.258 87.4818 861.26 87.5313C861.263 87.5809 861.25 87.63 861.223 87.6717C861.195 87.7134 861.155 87.7455 861.108 87.7635Z" fill="#2F7AFA"/>
<path d="M1115.29 70.4661L1107.44 68.4353C1107.41 68.4283 1107.38 68.413 1107.35 68.3908C1107.32 68.3686 1107.3 68.3401 1107.29 68.308L1103.83 61.1036C1103.68 60.8006 1103.44 60.5495 1103.15 60.3838C1102.85 60.2181 1102.5 60.1457 1102.16 60.1762C1101.82 60.2067 1101.5 60.3387 1101.23 60.5546C1100.97 60.7705 1100.78 61.06 1100.69 61.3845L1098.62 69.0825C1098.61 69.1165 1098.6 69.1483 1098.57 69.1749C1098.55 69.2016 1098.52 69.2224 1098.49 69.2354L1091.14 72.6238C1090.84 72.7701 1090.58 73.0055 1090.41 73.2983C1090.24 73.5912 1090.17 73.9276 1090.2 74.2627C1090.23 74.5978 1090.36 74.9156 1090.58 75.1736C1090.8 75.4317 1091.1 75.6178 1091.43 75.707L1099.28 77.7378C1099.31 77.7448 1099.35 77.7601 1099.37 77.7823C1099.4 77.8045 1099.42 77.833 1099.43 77.8652L1102.89 85.0695C1103.04 85.3725 1103.28 85.6236 1103.58 85.7893C1103.88 85.955 1104.22 86.0275 1104.56 85.9969C1104.9 85.9664 1105.23 85.8344 1105.49 85.6185C1105.75 85.4026 1105.94 85.1131 1106.03 84.7887L1108.1 77.0906C1108.11 77.0566 1108.13 77.0249 1108.15 76.9982C1108.17 76.9715 1108.2 76.9507 1108.23 76.9377L1115.58 73.5494C1115.89 73.403 1116.14 73.1677 1116.31 72.8748C1116.48 72.582 1116.55 72.2455 1116.52 71.9104C1116.49 71.5754 1116.36 71.2576 1116.14 70.9995C1115.92 70.7414 1115.62 70.5553 1115.29 70.4661ZM1114.97 72.2732L1107.62 75.6616C1107.4 75.7637 1107.2 75.9125 1107.05 76.0975C1106.89 76.2825 1106.78 76.4991 1106.71 76.732L1104.64 84.43C1104.63 84.4782 1104.6 84.5216 1104.57 84.5541C1104.53 84.5865 1104.48 84.6064 1104.43 84.6109C1104.38 84.6154 1104.33 84.6042 1104.29 84.579C1104.24 84.5538 1104.21 84.5158 1104.19 84.4705L1100.74 77.2661C1100.63 77.0481 1100.48 76.8552 1100.29 76.7011C1100.1 76.547 1099.88 76.4355 1099.64 76.3744L1091.8 74.3437C1091.75 74.3326 1091.7 74.3066 1091.67 74.2693C1091.64 74.2321 1091.62 74.1856 1091.61 74.1364C1091.61 74.0872 1091.62 74.0379 1091.64 73.9954C1091.67 73.9529 1091.71 73.9195 1091.76 73.8999L1099.1 70.5115C1099.32 70.4094 1099.52 70.2606 1099.68 70.0756C1099.83 69.8906 1099.95 69.674 1100.01 69.4411L1102.08 61.7431C1102.09 61.6949 1102.12 61.6515 1102.16 61.6191C1102.19 61.5866 1102.24 61.5667 1102.29 61.5622C1102.34 61.5577 1102.39 61.5689 1102.43 61.5941C1102.48 61.6193 1102.51 61.6573 1102.53 61.7026L1105.99 68.907C1106.09 69.125 1106.24 69.3179 1106.43 69.472C1106.62 69.6261 1106.84 69.7376 1107.08 69.7987L1114.93 71.8294C1114.97 71.8405 1115.02 71.8666 1115.05 71.9038C1115.08 71.941 1115.11 71.9875 1115.11 72.0367C1115.11 72.0859 1115.1 72.1353 1115.08 72.1777C1115.05 72.2202 1115.01 72.2536 1114.97 72.2732Z" fill="#F48637"/>
<path d="M1434.29 51.4663L1426.44 49.4356C1426.41 49.4286 1426.38 49.4133 1426.35 49.3911C1426.32 49.3688 1426.3 49.3404 1426.29 49.3082L1422.83 42.1038C1422.68 41.8009 1422.44 41.5497 1422.15 41.384C1421.85 41.2183 1421.5 41.1459 1421.16 41.1764C1420.82 41.207 1420.5 41.339 1420.23 41.5549C1419.97 41.7708 1419.78 42.0603 1419.69 42.3847L1417.62 50.0828C1417.61 50.1168 1417.6 50.1485 1417.57 50.1752C1417.55 50.2018 1417.52 50.2226 1417.49 50.2357L1410.14 53.624C1409.84 53.7704 1409.58 54.0057 1409.41 54.2986C1409.24 54.5914 1409.17 54.9278 1409.2 55.2629C1409.23 55.598 1409.36 55.9158 1409.58 56.1739C1409.8 56.432 1410.1 56.618 1410.43 56.7073L1418.28 58.738C1418.31 58.745 1418.35 58.7603 1418.37 58.7826C1418.4 58.8048 1418.42 58.8332 1418.43 58.8654L1421.89 66.0698C1422.04 66.3728 1422.28 66.6239 1422.58 66.7896C1422.88 66.9553 1423.22 67.0277 1423.56 66.9972C1423.9 66.9667 1424.23 66.8346 1424.49 66.6187C1424.75 66.4028 1424.94 66.1133 1425.03 65.7889L1427.1 58.0908C1427.11 58.0568 1427.13 58.0251 1427.15 57.9984C1427.17 57.9718 1427.2 57.951 1427.23 57.9379L1434.58 54.5496C1434.89 54.4032 1435.14 54.1679 1435.31 53.8751C1435.48 53.5822 1435.55 53.2458 1435.52 52.9107C1435.49 52.5756 1435.36 52.2578 1435.14 51.9997C1434.92 51.7416 1434.62 51.5556 1434.29 51.4663ZM1433.97 53.2735L1426.62 56.6618C1426.4 56.764 1426.2 56.9128 1426.05 57.0978C1425.89 57.2827 1425.78 57.4993 1425.71 57.7322L1423.64 65.4303C1423.63 65.4784 1423.6 65.5218 1423.57 65.5543C1423.53 65.5868 1423.48 65.6067 1423.43 65.6111C1423.38 65.6156 1423.33 65.6045 1423.29 65.5793C1423.24 65.554 1423.21 65.5161 1423.19 65.4707L1419.74 58.2663C1419.63 58.0483 1419.48 57.8554 1419.29 57.7013C1419.1 57.5472 1418.88 57.4357 1418.64 57.3747L1410.8 55.3439C1410.75 55.3328 1410.7 55.3068 1410.67 55.2696C1410.64 55.2324 1410.62 55.1858 1410.61 55.1367C1410.61 55.0875 1410.62 55.0381 1410.64 54.9956C1410.67 54.9532 1410.71 54.9197 1410.76 54.9001L1418.1 51.5118C1418.32 51.4097 1418.52 51.2608 1418.68 51.0758C1418.83 50.8909 1418.95 50.6743 1419.01 50.4414L1421.08 42.7433C1421.09 42.6952 1421.12 42.6518 1421.16 42.6193C1421.19 42.5868 1421.24 42.5669 1421.29 42.5625C1421.34 42.558 1421.39 42.5691 1421.43 42.5944C1421.48 42.6196 1421.51 42.6576 1421.53 42.7029L1424.99 49.9073C1425.09 50.1253 1425.24 50.3182 1425.43 50.4723C1425.62 50.6264 1425.84 50.7379 1426.08 50.7989L1433.93 52.8297C1433.97 52.8408 1434.02 52.8668 1434.05 52.904C1434.08 52.9412 1434.11 52.9878 1434.11 53.037C1434.11 53.0861 1434.1 53.1355 1434.08 53.178C1434.05 53.2204 1434.01 53.2539 1433.97 53.2735Z" fill="#A23FFC"/>
<path d="M77.2725 149.248L75.535 120.209L85.8858 119.589C88.145 119.454 90.0413 119.754 91.5746 120.487C93.1079 121.221 94.2859 122.279 95.1086 123.662C95.9308 125.036 96.395 126.612 96.5013 128.389C96.6082 130.175 96.331 131.805 95.6696 133.277C95.0172 134.739 93.969 135.93 92.5253 136.852C91.0904 137.763 89.2481 138.286 86.9983 138.42L79.8803 138.846L79.6581 135.131L86.379 134.729C87.8064 134.644 88.9496 134.329 89.8088 133.784C90.6674 133.23 91.2789 132.51 91.6433 131.625C92.0078 130.74 92.1572 129.749 92.0916 128.653C92.026 127.556 91.7598 126.595 91.293 125.769C90.8261 124.943 90.1293 124.316 89.2024 123.888C88.285 123.459 87.0985 123.288 85.6427 123.375L80.1412 123.704L81.6539 148.986L77.2725 149.248ZM102.813 147.72L101.075 118.681L111.426 118.061C113.676 117.927 115.566 118.203 117.096 118.889C118.636 119.575 119.816 120.581 120.635 121.907C121.454 123.224 121.917 124.776 122.024 126.563C122.13 128.34 121.85 129.927 121.184 131.323C120.527 132.71 119.475 133.821 118.026 134.657C116.586 135.493 114.742 135.978 112.492 136.112L104.651 136.581L104.425 132.81L111.869 132.364C113.287 132.28 114.428 132.007 115.292 131.548C116.166 131.087 116.788 130.457 117.157 129.657C117.527 128.857 117.679 127.914 117.614 126.827C117.548 125.73 117.279 124.793 116.805 124.015C116.341 123.236 115.648 122.661 114.724 122.29C113.81 121.908 112.629 121.76 111.183 121.847L105.681 122.176L107.194 147.457L102.813 147.72ZM116.364 133.76L124.323 146.433L119.332 146.731L111.515 134.051L116.364 133.76ZM152.904 130.151C153.09 133.252 152.682 135.951 151.681 138.25C150.68 140.539 149.227 142.343 147.323 143.662C145.428 144.971 143.228 145.7 140.723 145.85C138.209 146 135.928 145.539 133.881 144.466C131.843 143.383 130.19 141.76 128.923 139.597C127.655 137.434 126.928 134.807 126.743 131.716C126.558 128.616 126.966 125.921 127.967 123.632C128.968 121.333 130.416 119.529 132.311 118.221C134.215 116.902 136.424 116.167 138.938 116.017C141.443 115.867 143.715 116.333 145.753 117.416C147.8 118.489 149.457 120.107 150.725 122.27C151.992 124.424 152.719 127.051 152.904 130.151ZM148.565 130.411C148.424 128.047 147.922 126.081 147.059 124.51C146.206 122.929 145.093 121.763 143.719 121.01C142.355 120.247 140.841 119.916 139.178 120.015C137.504 120.115 136.036 120.625 134.772 121.545C133.508 122.456 132.542 123.747 131.874 125.419C131.214 127.08 130.955 129.093 131.096 131.456C131.238 133.819 131.735 135.791 132.589 137.372C133.451 138.942 134.565 140.109 135.929 140.872C137.292 141.625 138.811 141.951 140.484 141.851C142.148 141.752 143.612 141.247 144.876 140.336C146.149 139.416 147.115 138.125 147.775 136.463C148.443 134.791 148.707 132.774 148.565 130.411ZM168.636 143.781L159.235 144.344L157.498 115.305L167.196 114.724C170.042 114.554 172.52 114.989 174.631 116.03C176.742 117.061 178.406 118.626 179.622 120.726C180.848 122.816 181.551 125.368 181.731 128.384C181.912 131.408 181.515 134.041 180.539 136.281C179.573 138.521 178.085 140.289 176.075 141.586C174.065 142.873 171.585 143.605 168.636 143.781ZM163.388 140.253L168.166 139.967C170.378 139.835 172.192 139.309 173.607 138.389C175.022 137.461 176.046 136.18 176.679 134.549C177.311 132.908 177.558 130.938 177.421 128.641C177.285 126.363 176.805 124.452 175.982 122.907C175.169 121.362 174.024 120.221 172.547 119.484C171.07 118.747 169.273 118.442 167.156 118.569L162.108 118.871L163.388 140.253ZM204.987 112.463L209.383 112.2L210.526 131.3C210.647 133.332 210.278 135.161 209.417 136.788C208.555 138.404 207.287 139.714 205.611 140.715C203.934 141.707 201.933 142.273 199.607 142.412C197.292 142.551 195.242 142.227 193.459 141.442C191.675 140.648 190.26 139.499 189.212 137.997C188.163 136.485 187.578 134.712 187.456 132.68L186.313 113.581L190.695 113.318L191.816 132.063C191.895 133.377 192.253 134.527 192.891 135.514C193.538 136.5 194.413 137.254 195.516 137.776C196.619 138.289 197.903 138.501 199.368 138.413C200.843 138.325 202.097 137.961 203.131 137.32C204.173 136.67 204.948 135.817 205.454 134.762C205.969 133.707 206.188 132.522 206.109 131.208L204.987 112.463ZM240.437 119.819L236.013 120.084C235.786 119.149 235.42 118.336 234.914 117.645C234.407 116.955 233.804 116.379 233.103 115.918C232.402 115.457 231.627 115.124 230.78 114.919C229.943 114.713 229.061 114.637 228.134 114.693C226.461 114.793 224.988 115.303 223.715 116.224C222.451 117.144 221.485 118.439 220.817 120.111C220.158 121.782 219.899 123.79 220.039 126.134C220.18 128.497 220.678 130.469 221.531 132.05C222.394 133.63 223.512 134.796 224.885 135.549C226.259 136.302 227.772 136.629 229.427 136.53C230.343 136.475 231.206 136.3 232.013 136.005C232.83 135.7 233.559 135.281 234.201 134.75C234.843 134.218 235.374 133.584 235.795 132.847C236.224 132.1 236.501 131.259 236.625 130.321L241.05 130.071C240.899 131.512 240.519 132.854 239.911 134.095C239.311 135.326 238.507 136.408 237.501 137.341C236.503 138.264 235.342 139.003 234.019 139.556C232.695 140.11 231.235 140.434 229.637 140.53C227.123 140.68 224.847 140.219 222.81 139.145C220.772 138.062 219.119 136.44 217.851 134.277C216.593 132.113 215.871 129.486 215.686 126.395C215.5 123.294 215.908 120.599 216.91 118.31C217.911 116.011 219.359 114.208 221.253 112.899C223.148 111.581 225.347 110.847 227.852 110.697C229.393 110.605 230.843 110.741 232.203 111.105C233.571 111.46 234.815 112.03 235.934 112.817C237.052 113.595 237.998 114.572 238.77 115.75C239.542 116.918 240.098 118.274 240.437 119.819ZM243.908 113.92L243.682 110.148L266.156 108.803L266.382 112.575L257.322 113.117L258.833 138.384L254.466 138.646L252.954 113.378L243.908 113.92ZM292.828 136.35L283.427 136.913L281.69 107.874L291.388 107.294C294.234 107.123 296.712 107.559 298.823 108.599C300.934 109.63 302.598 111.196 303.814 113.295C305.04 115.385 305.743 117.937 305.923 120.953C306.104 123.978 305.707 126.61 304.731 128.851C303.764 131.09 302.277 132.859 300.267 134.155C298.257 135.442 295.777 136.174 292.828 136.35ZM287.58 132.822L292.358 132.537C294.57 132.404 296.384 131.878 297.799 130.959C299.214 130.03 300.238 128.749 300.871 127.118C301.503 125.477 301.75 123.508 301.613 121.211C301.476 118.933 300.997 117.021 300.174 115.477C299.361 113.932 298.216 112.791 296.739 112.054C295.262 111.317 293.465 111.011 291.348 111.138L286.3 111.44L287.58 132.822ZM312.243 135.189L310.505 106.15L328.711 105.061L328.937 108.832L315.112 109.659L315.642 118.507L328.517 117.737L328.741 121.494L315.867 122.265L316.399 131.155L330.393 130.318L330.619 134.089L312.243 135.189ZM350.859 111.391C350.627 110.058 349.941 109.055 348.8 108.384C347.659 107.703 346.257 107.412 344.593 107.511C343.402 107.583 342.383 107.833 341.536 108.263C340.688 108.684 340.043 109.235 339.6 109.916C339.166 110.587 338.973 111.334 339.022 112.156C339.064 112.846 339.26 113.432 339.611 113.914C339.972 114.395 340.427 114.79 340.977 115.099C341.536 115.397 342.129 115.642 342.757 115.832C343.384 116.012 343.986 116.157 344.562 116.265L347.442 116.832C348.382 117.004 349.35 117.254 350.347 117.583C351.344 117.913 352.277 118.369 353.147 118.953C354.016 119.536 354.734 120.281 355.301 121.186C355.877 122.091 356.204 123.195 356.282 124.5C356.38 126.144 356.042 127.63 355.268 128.957C354.503 130.284 353.339 131.364 351.776 132.197C350.223 133.03 348.312 133.515 346.043 133.65C343.869 133.78 341.967 133.548 340.338 132.953C338.708 132.358 337.407 131.454 336.433 130.241C335.459 129.018 334.872 127.536 334.673 125.793L339.068 125.53C339.216 126.574 339.609 127.428 340.246 128.092C340.892 128.746 341.694 129.215 342.65 129.499C343.615 129.773 344.66 129.877 345.785 129.809C347.023 129.735 348.113 129.476 349.054 129.03C350.004 128.575 350.736 127.981 351.252 127.248C351.768 126.506 351.997 125.662 351.94 124.717C351.889 123.857 351.601 123.167 351.077 122.648C350.562 122.129 349.878 121.714 349.024 121.405C348.18 121.095 347.23 120.834 346.174 120.622L342.687 119.891C340.324 119.397 338.425 118.576 336.99 117.429C335.565 116.281 334.791 114.696 334.67 112.673C334.57 111 334.937 109.512 335.769 108.21C336.602 106.908 337.773 105.865 339.282 105.083C340.791 104.29 342.518 103.836 344.466 103.719C346.432 103.602 348.187 103.843 349.731 104.443C351.285 105.043 352.533 105.921 353.475 107.079C354.416 108.228 354.953 109.581 355.084 111.138L350.859 111.391ZM364.642 102.911L366.379 131.95L361.998 132.212L360.26 103.173L364.642 102.911ZM391.223 110.527C390.898 109.683 390.483 108.935 389.979 108.282C389.484 107.619 388.906 107.066 388.243 106.621C387.581 106.168 386.835 105.838 386.007 105.631C385.188 105.424 384.297 105.349 383.333 105.407C381.697 105.505 380.248 106.014 378.984 106.933C377.721 107.853 376.755 109.149 376.086 110.821C375.427 112.483 375.167 114.485 375.307 116.83C375.448 119.184 375.95 121.15 376.813 122.731C377.676 124.311 378.799 125.481 380.182 126.243C381.565 127.004 383.108 127.334 384.809 127.233C386.388 127.138 387.744 126.734 388.878 126.021C390.021 125.308 390.879 124.346 391.451 123.135C392.033 121.915 392.276 120.506 392.18 118.908L393.327 119.053L385.018 119.55L384.802 115.934L396.216 115.251L396.414 118.555C396.56 120.994 396.167 123.143 395.234 125.001C394.311 126.849 392.966 128.315 391.2 129.397C389.443 130.48 387.393 131.091 385.048 131.231C382.421 131.388 380.078 130.921 378.02 129.83C375.972 128.738 374.329 127.115 373.09 124.96C371.851 122.795 371.139 120.181 370.956 117.119C370.817 114.803 371.014 112.704 371.547 110.822C372.079 108.94 372.888 107.322 373.974 105.967C375.069 104.602 376.385 103.531 377.923 102.756C379.47 101.971 381.184 101.522 383.065 101.41C384.634 101.316 386.108 101.46 387.488 101.843C388.877 102.224 390.126 102.809 391.236 103.596C392.355 104.383 393.299 105.342 394.069 106.472C394.838 107.593 395.388 108.855 395.718 110.258L391.223 110.527ZM424.368 99.3371L426.105 128.376L422.078 128.617L406.044 108.203L405.774 108.219L407.048 129.516L402.667 129.778L400.93 100.739L404.985 100.497L421.036 120.938L421.305 120.922L420.029 99.5967L424.368 99.3371ZM432.497 127.994L430.759 98.9547L448.965 97.8654L449.191 101.637L435.366 102.464L435.896 111.312L448.77 110.542L448.995 114.299L436.12 115.07L436.652 123.96L450.647 123.123L450.873 126.894L432.497 127.994ZM456.555 126.554L454.818 97.5152L465.168 96.8959C467.418 96.7613 469.308 97.0371 470.839 97.7235C472.379 98.4092 473.558 99.4154 474.378 100.742C475.196 102.059 475.659 103.611 475.766 105.397C475.872 107.175 475.593 108.761 474.927 110.158C474.27 111.544 473.217 112.655 471.768 113.492C470.329 114.327 468.484 114.812 466.234 114.947L458.393 115.416L458.167 111.644L465.612 111.199C467.029 111.114 468.171 110.842 469.035 110.382C469.909 109.922 470.53 109.292 470.9 108.492C471.269 107.692 471.421 106.748 471.356 105.661C471.291 104.565 471.021 103.627 470.548 102.849C470.084 102.071 469.39 101.496 468.467 101.124C467.552 100.742 466.372 100.595 464.925 100.681L459.424 101.011L460.936 126.292L456.555 126.554ZM470.106 112.595L478.065 125.267L473.074 125.566L465.257 112.885L470.106 112.595ZM604.897 88.5355L609.293 88.2725L610.436 107.372C610.557 109.404 610.188 111.234 609.327 112.86C608.465 114.477 607.197 115.786 605.52 116.787C603.844 117.779 601.843 118.345 599.517 118.484C597.201 118.623 595.152 118.299 593.369 117.514C591.585 116.72 590.169 115.571 589.121 114.069C588.073 112.557 587.488 110.785 587.366 108.752L586.223 89.6528L590.605 89.3907L591.726 108.136C591.805 109.449 592.163 110.6 592.801 111.586C593.448 112.572 594.323 113.326 595.426 113.848C596.529 114.361 597.813 114.573 599.278 114.486C600.753 114.397 602.007 114.033 603.04 113.392C604.083 112.742 604.857 111.889 605.363 110.834C605.879 109.779 606.097 108.594 606.019 107.28L604.897 88.5355ZM631.957 94.5721C631.726 93.2389 631.04 92.2364 629.899 91.5647C628.758 90.8835 627.355 90.5927 625.692 90.6923C624.501 90.7635 623.482 91.0142 622.635 91.4444C621.787 91.8651 621.142 92.416 620.699 93.097C620.264 93.7681 620.072 94.5148 620.121 95.3372C620.162 96.0273 620.359 96.6132 620.71 97.095C621.071 97.5762 621.526 97.9711 622.076 98.2797C622.635 98.5783 623.228 98.8227 623.856 99.0128C624.483 99.1934 625.085 99.3377 625.66 99.4455L628.54 100.013C629.48 100.185 630.449 100.435 631.446 100.764C632.442 101.094 633.376 101.55 634.245 102.134C635.115 102.717 635.833 103.462 636.4 104.367C636.976 105.272 637.303 106.376 637.381 107.681C637.479 109.325 637.141 110.811 636.367 112.138C635.602 113.465 634.438 114.545 632.875 115.378C631.322 116.211 629.411 116.696 627.142 116.831C624.968 116.961 623.066 116.729 621.437 116.134C619.807 115.539 618.506 114.635 617.532 113.422C616.558 112.199 615.971 110.717 615.772 108.974L620.167 108.711C620.315 109.755 620.708 110.609 621.345 111.273C621.991 111.927 622.792 112.396 623.749 112.68C624.714 112.954 625.759 113.058 626.884 112.99C628.122 112.916 629.212 112.657 630.153 112.211C631.102 111.756 631.835 111.162 632.351 110.429C632.866 109.687 633.096 108.843 633.039 107.898C632.988 107.038 632.7 106.348 632.176 105.829C631.661 105.31 630.977 104.895 630.123 104.586C629.279 104.276 628.329 104.015 627.273 103.803L623.786 103.073C621.422 102.578 619.523 101.758 618.089 100.61C616.663 99.4621 615.89 97.8767 615.769 95.8538C615.669 94.1806 616.035 92.693 616.868 91.3909C617.701 90.0889 618.872 89.0464 620.381 88.2636C621.889 87.4714 623.617 87.017 625.564 86.9005C627.531 86.7828 629.286 87.0241 630.83 87.6242C632.384 88.2238 633.632 89.1025 634.574 90.2604C635.515 91.4089 636.052 92.7619 636.183 94.3193L631.957 94.5721ZM643.097 115.393L641.359 86.3539L659.565 85.2646L659.791 89.0362L645.966 89.8634L646.495 98.7112L659.37 97.9409L659.595 101.698L646.72 102.469L647.252 111.359L661.247 110.522L661.473 114.293L643.097 115.393ZM667.155 113.953L665.418 84.9144L675.768 84.2951C678.018 84.1605 679.908 84.4363 681.439 85.1226C682.979 85.8084 684.158 86.8146 684.978 88.1411C685.796 89.4582 686.259 91.01 686.366 92.7966C686.472 94.5737 686.193 96.1605 685.527 97.5569C684.87 98.9433 683.817 100.055 682.368 100.891C680.929 101.726 679.084 102.211 676.834 102.346L668.993 102.815L668.767 99.0435L676.211 98.5981C677.629 98.5133 678.77 98.241 679.635 97.7814C680.508 97.3212 681.13 96.6911 681.5 95.8911C681.869 95.0911 682.021 94.1475 681.956 93.0604C681.891 91.9639 681.621 91.0266 681.148 90.2486C680.684 89.47 679.99 88.8949 679.067 88.5232C678.152 88.1416 676.972 87.994 675.525 88.0805L670.024 88.4097L671.536 113.691L667.155 113.953ZM680.706 99.9941L688.665 112.666L683.674 112.965L675.857 100.284L680.706 99.9941ZM705.91 111.635L701.26 111.913L709.972 82.2486L715.034 81.9457L727.222 110.359L722.571 110.638L712.939 87.3646L712.712 87.3781L705.91 111.635ZM706.01 100.216L721.096 99.3135L721.317 103L706.23 103.903L706.01 100.216ZM731.415 110.108L729.678 81.0695L734.059 80.8074L735.571 106.075L748.729 105.287L748.955 109.059L731.415 110.108ZM753.953 108.76L752.215 79.721L756.597 79.4589L758.109 104.726L771.267 103.939L771.493 107.711L753.953 108.76ZM770.368 78.6349L775.345 78.3371L783.721 91.084L784.033 91.0654L790.829 77.4106L795.806 77.1129L786.326 95.3821L787.008 106.782L782.641 107.043L781.959 95.6434L770.368 78.6349ZM930.297 78.543L925.873 78.8077C925.646 77.8726 925.28 77.0597 924.774 76.369C924.267 75.6783 923.664 75.1025 922.963 74.6417C922.262 74.1809 921.487 73.8477 920.64 73.6423C919.803 73.4362 918.921 73.361 917.994 73.4164C916.321 73.5165 914.848 74.0268 913.575 74.9473C912.311 75.8672 911.345 77.163 910.677 78.8347C910.018 80.5058 909.759 82.5135 909.899 84.8578C910.04 87.221 910.538 89.1929 911.391 90.7736C912.254 92.3536 913.372 93.52 914.745 94.2726C916.119 95.0253 917.632 95.3522 919.287 95.2532C920.203 95.1983 921.066 95.0234 921.873 94.7284C922.69 94.4234 923.419 94.0051 924.061 93.4734C924.703 92.9417 925.234 92.3075 925.655 91.5708C926.084 90.8241 926.361 89.9822 926.485 89.0451L930.91 88.7946C930.759 90.2361 930.379 91.5774 929.771 92.8187C929.171 94.0499 928.367 95.132 927.361 96.065C926.363 96.988 925.202 97.7262 923.879 98.2797C922.555 98.8333 921.095 99.1578 919.497 99.2534C916.983 99.4038 914.707 98.9424 912.67 97.869C910.632 96.7861 908.979 95.1632 907.711 93.0002C906.453 90.8366 905.731 88.2093 905.546 85.1183C905.36 82.0177 905.768 79.3228 906.77 77.0336C907.771 74.7348 909.219 72.9311 911.113 71.6224C913.008 70.3043 915.207 69.5703 917.712 69.4204C919.253 69.3282 920.703 69.4644 922.063 69.8289C923.431 70.1834 924.675 70.7541 925.794 71.5409C926.912 72.3183 927.858 73.2958 928.63 74.4734C929.402 75.6415 929.958 76.998 930.297 78.543ZM961.068 81.7962C961.254 84.8967 960.846 87.5963 959.845 89.8951C958.844 92.1843 957.391 93.9883 955.487 95.3071C953.592 96.6157 951.392 97.345 948.887 97.4949C946.373 97.6454 944.092 97.1842 942.045 96.1113C940.007 95.0285 938.354 93.4055 937.087 91.2425C935.819 89.0796 935.092 86.4525 934.907 83.3615C934.722 80.261 935.13 77.5661 936.131 75.2768C937.132 72.9781 938.58 71.1743 940.475 69.8656C942.379 68.5469 944.588 67.8124 947.102 67.6619C949.607 67.512 951.879 67.9785 953.917 69.0614C955.964 70.1342 957.621 71.7521 958.889 73.9151C960.156 76.0687 960.883 78.6957 961.068 81.7962ZM956.729 82.0558C956.588 79.6926 956.086 77.7257 955.224 76.1551C954.37 74.5745 953.257 73.4078 951.884 72.6551C950.519 71.8925 949.005 71.5609 947.342 71.6604C945.668 71.7605 944.2 72.2706 942.936 73.1905C941.672 74.1009 940.706 75.392 940.038 77.0637C939.378 78.7254 939.119 80.7378 939.26 83.101C939.402 85.4642 939.899 87.4361 940.753 89.0168C941.615 90.5874 942.729 91.754 944.093 92.5167C945.457 93.2699 946.975 93.5965 948.648 93.4964C950.312 93.3968 951.776 92.8918 953.04 91.9814C954.313 91.0609 955.279 89.7698 955.939 88.1081C956.607 86.4365 956.871 84.419 956.729 82.0558ZM976.8 95.4264L967.399 95.9889L965.662 66.9499L975.36 66.3696C978.206 66.1993 980.684 66.6345 982.795 67.675C984.906 68.7061 986.57 70.2714 987.786 72.3711C989.012 74.4607 989.715 77.0132 989.895 80.0287C990.076 83.0536 989.679 85.6862 988.703 87.9265C987.737 90.1663 986.249 91.9344 984.239 93.231C982.229 94.5181 979.749 95.2499 976.8 95.4264ZM971.552 91.8983L976.33 91.6124C978.542 91.4801 980.356 90.9541 981.771 90.0346C983.186 89.1057 984.21 87.8254 984.843 86.1937C985.475 84.5527 985.722 82.5836 985.585 80.2866C985.449 78.0085 984.969 76.0972 984.146 74.5526C983.333 73.0076 982.188 71.8665 980.711 71.1295C979.234 70.3925 977.437 70.0874 975.32 70.2141L970.272 70.5161L971.552 91.8983ZM996.215 94.2647L994.478 65.2257L1012.68 64.1364L1012.91 67.9081L999.085 68.7353L999.614 77.5831L1012.49 76.8127L1012.71 80.5702L999.839 81.3406L1000.37 90.2309L1014.37 89.3936L1014.59 93.1652L996.215 94.2647ZM1020.27 92.8252L1018.54 63.7863L1028.89 63.1669C1031.14 63.0323 1033.03 63.3082 1034.56 63.9945C1036.1 64.6803 1037.28 65.6864 1038.1 67.013C1038.91 68.3301 1039.38 69.8819 1039.48 71.6685C1039.59 73.4456 1039.31 75.0324 1038.65 76.4288C1037.99 77.8152 1036.94 78.9265 1035.49 79.7626C1034.05 80.5982 1032.2 81.0833 1029.95 81.2179L1022.11 81.687L1021.89 77.9154L1029.33 77.47C1030.75 77.3851 1031.89 77.1129 1032.75 76.6533C1033.63 76.1931 1034.25 75.563 1034.62 74.7629C1034.99 73.9629 1035.14 73.0194 1035.07 71.9323C1035.01 70.8358 1034.74 69.8985 1034.27 69.1205C1033.8 68.3419 1033.11 67.7668 1032.19 67.3951C1031.27 67.0134 1030.09 66.8659 1028.64 66.9524L1023.14 67.2816L1024.65 92.5631L1020.27 92.8252ZM1033.82 78.8659L1041.78 91.5382L1036.79 91.8369L1028.98 79.1561L1033.82 78.8659ZM1171.98 84.1465C1170.04 84.263 1168.28 84.0315 1166.7 83.4519C1165.14 82.8719 1163.88 82.0129 1162.92 80.875C1161.97 79.7271 1161.41 78.3658 1161.25 76.7911L1165.71 76.5247C1165.81 77.3816 1166.15 78.1111 1166.71 78.7133C1167.27 79.3055 1167.99 79.7463 1168.86 80.0357C1169.73 80.3251 1170.69 80.4387 1171.73 80.3765C1172.87 80.3081 1173.87 80.049 1174.73 79.5994C1175.59 79.1492 1176.25 78.5547 1176.71 77.8157C1177.17 77.0673 1177.37 76.2252 1177.32 75.2894C1177.26 74.3158 1176.96 73.4753 1176.41 72.7679C1175.87 72.0506 1175.12 71.5078 1174.14 71.1395C1173.17 70.7707 1172.01 70.6265 1170.67 70.7068L1168.21 70.8535L1168 67.2804L1170.45 67.1336C1171.53 67.0691 1172.46 66.8188 1173.25 66.3826C1174.05 65.9458 1174.66 65.3686 1175.09 64.6508C1175.51 63.9236 1175.69 63.092 1175.63 62.1562C1175.58 61.2582 1175.33 60.4905 1174.88 59.8531C1174.45 59.2057 1173.85 58.715 1173.09 58.381C1172.34 58.0465 1171.47 57.9089 1170.47 57.9683C1169.53 58.0248 1168.65 58.2526 1167.85 58.6516C1167.06 59.0405 1166.43 59.5716 1165.96 60.245C1165.48 60.9088 1165.26 61.6862 1165.27 62.577L1161.03 62.8307C1160.98 61.2587 1161.36 59.8509 1162.17 58.6072C1162.99 57.363 1164.11 56.3618 1165.52 55.6035C1166.94 54.8453 1168.53 54.413 1170.31 54.3067C1172.17 54.1952 1173.8 54.463 1175.2 55.11C1176.6 55.747 1177.71 56.6437 1178.52 57.8C1179.34 58.9559 1179.78 60.2477 1179.86 61.6757C1179.97 63.301 1179.59 64.7083 1178.75 65.8974C1177.91 67.0861 1176.74 67.9194 1175.25 68.3975L1175.27 68.6244C1177.21 68.802 1178.75 69.4783 1179.88 70.6533C1181.03 71.8277 1181.65 73.3321 1181.75 75.1665C1181.85 76.7635 1181.49 78.2221 1180.67 79.5426C1179.86 80.8624 1178.7 81.9323 1177.21 82.7524C1175.71 83.563 1173.97 84.0277 1171.98 84.1465ZM1197.38 82.2283L1187.98 82.7908L1186.24 53.7518L1195.94 53.1715C1198.79 53.0013 1201.27 53.4364 1203.38 54.4769C1205.49 55.508 1207.15 57.0734 1208.37 59.173C1209.59 61.2626 1210.3 63.8152 1210.48 66.8306C1210.66 69.8555 1210.26 72.4881 1209.29 74.7284C1208.32 76.9682 1206.83 78.7363 1204.82 80.0329C1202.81 81.32 1200.33 82.0518 1197.38 82.2283ZM1192.13 78.7002L1196.91 78.4143C1199.12 78.282 1200.94 77.7561 1202.35 76.8365C1203.77 75.9076 1204.79 74.6273 1205.42 72.9957C1206.06 71.3546 1206.3 69.3855 1206.17 67.0885C1206.03 64.8104 1205.55 62.8991 1204.73 61.3546C1203.91 59.8095 1202.77 58.6684 1201.29 57.9314C1199.82 57.1945 1198.02 56.8893 1195.9 57.016L1190.85 57.318L1192.13 78.7002ZM1229.82 80.2876L1225.17 80.5659L1233.88 50.9016L1238.94 50.5988L1251.13 79.0125L1246.48 79.2908L1236.85 56.0177L1236.62 56.0312L1229.82 80.2876ZM1229.92 68.8692L1245 67.9666L1245.22 71.6532L1230.14 72.5558L1229.92 68.8692ZM1255.32 78.7616L1253.58 49.7226L1263.94 49.1033C1266.18 48.9687 1268.08 49.2445 1269.61 49.9309C1271.15 50.6166 1272.33 51.6228 1273.14 52.9493C1273.96 54.2664 1274.43 55.8182 1274.53 57.6048C1274.64 59.3819 1274.36 60.9687 1273.69 62.3652C1273.04 63.7516 1271.98 64.8628 1270.53 65.699C1269.1 66.5345 1267.25 67.0196 1265 67.1542L1257.16 67.6234L1256.93 63.8517L1264.38 63.4063C1265.8 63.3215 1266.94 63.0493 1267.8 62.5896C1268.68 62.1294 1269.3 61.4993 1269.67 60.6993C1270.04 59.8993 1270.19 58.9557 1270.12 57.8687C1270.06 56.7721 1269.79 55.8349 1269.31 55.0568C1268.85 54.2782 1268.16 53.7031 1267.23 53.3315C1266.32 52.9498 1265.14 52.8022 1263.69 52.8888L1258.19 53.2179L1259.7 78.4994L1255.32 78.7616ZM1268.87 64.8023L1276.83 77.4746L1271.84 77.7732L1264.02 65.0924L1268.87 64.8023ZM1278.11 52.0401L1277.89 48.2685L1300.36 46.9238L1300.59 50.6955L1291.53 51.2376L1293.04 76.5049L1288.67 76.7662L1287.16 51.4989L1278.11 52.0401ZM1309.71 46.3645L1311.45 75.4035L1307.07 75.6656L1305.33 46.6266L1309.71 46.3645ZM1332.38 52.6635C1332.15 51.3302 1331.47 50.3278 1330.33 49.656C1329.18 48.9749 1327.78 48.6841 1326.12 48.7836C1324.93 48.8549 1323.91 49.1056 1323.06 49.5357C1322.21 49.9564 1321.57 50.5073 1321.13 51.1884C1320.69 51.8595 1320.5 52.6062 1320.55 53.4286C1320.59 54.1187 1320.79 54.7046 1321.14 55.1863C1321.5 55.6675 1321.95 56.0625 1322.5 56.3711C1323.06 56.6697 1323.65 56.914 1324.28 57.1041C1324.91 57.2848 1325.51 57.4291 1326.09 57.5369L1328.97 58.1045C1329.91 58.276 1330.88 58.5264 1331.87 58.8557C1332.87 59.185 1333.8 59.6414 1334.67 60.225C1335.54 60.8085 1336.26 61.553 1336.83 62.4583C1337.4 63.363 1337.73 64.4676 1337.81 65.7721C1337.91 67.4169 1337.57 68.9028 1336.79 70.2298C1336.03 71.5563 1334.86 72.6362 1333.3 73.4697C1331.75 74.3026 1329.84 74.7869 1327.57 74.9227C1325.39 75.0527 1323.49 74.8203 1321.86 74.2252C1320.23 73.6302 1318.93 72.7262 1317.96 71.5133C1316.98 70.2909 1316.4 68.8081 1316.2 67.065L1320.59 66.802C1320.74 67.8462 1321.13 68.7002 1321.77 69.3641C1322.42 70.0179 1323.22 70.487 1324.18 70.7713C1325.14 71.0456 1326.19 71.1491 1327.31 71.0818C1328.55 71.0077 1329.64 70.748 1330.58 70.3028C1331.53 69.8475 1332.26 69.2534 1332.78 68.5205C1333.29 67.7782 1333.52 66.9344 1333.47 65.9891C1333.41 65.1289 1333.13 64.4394 1332.6 63.9205C1332.09 63.4011 1331.4 62.9867 1330.55 62.6773C1329.71 62.3673 1328.76 62.1063 1327.7 61.8944L1324.21 61.1639C1321.85 60.6697 1319.95 59.8489 1318.52 58.7015C1317.09 57.5535 1316.32 55.968 1316.2 53.9451C1316.1 52.272 1316.46 50.7844 1317.3 49.4823C1318.13 48.1802 1319.3 47.1378 1320.81 46.355C1322.32 45.5627 1324.04 45.1084 1325.99 44.9918C1327.96 44.8742 1329.71 45.1154 1331.26 45.7156C1332.81 46.3151 1334.06 47.1939 1335 48.3518C1335.94 49.5003 1336.48 50.8532 1336.61 52.4107L1332.38 52.6635ZM1340.58 48.3026L1340.35 44.5309L1362.83 43.1862L1363.05 46.9579L1353.99 47.5L1355.5 72.7673L1351.14 73.0286L1349.63 47.7613L1340.58 48.3026Z" fill="black"/>
<defs>
<linearGradient id="paint0_linear_957_587" x1="-10.5107" y1="134.322" x2="1448.94" y2="115.06" gradientUnits="userSpaceOnUse">
<stop stop-color="#257DFB"/>
<stop offset="0.348958" stop-color="#AC58E7"/>
<stop offset="0.697917" stop-color="#E44D65"/>
<stop offset="1" stop-color="#FFAB19"/>
</linearGradient>
</defs>
</svg>
